<svg width="32" height="32" viewBox="0 0 32 32" fill="none" xmlns="http://www.w3.org/2000/svg">
<path fill-rule="evenodd" clip-rule="evenodd" d="M16 20.0001C16.2652 20.0001 16.5196 19.8947 16.7071 19.7072C16.8946 19.5196 17 19.2653 17 19.0001V7.41408L21.292 11.7081C21.385 11.8011 21.4954 11.8748 21.6168 11.9251C21.7383 11.9754 21.8685 12.0013 22 12.0013C22.1315 12.0013 22.2617 11.9754 22.3832 11.9251C22.5046 11.8748 22.615 11.8011 22.708 11.7081C22.801 11.6151 22.8747 11.5047 22.925 11.3832C22.9754 11.2618 23.0013 11.1316 23.0013 11.0001C23.0013 10.8686 22.9754 10.7384 22.925 10.6169C22.8747 10.4954 22.801 10.3851 22.708 10.2921L16.708 4.29208C16.6151 4.19895 16.5048 4.12507 16.3833 4.07465C16.2618 4.02424 16.1315 3.99829 16 3.99829C15.8685 3.99829 15.7382 4.02424 15.6167 4.07465C15.4952 4.12507 15.3849 4.19895 15.292 4.29208L9.292 10.2921C9.10423 10.4799 8.99874 10.7345 8.99874 11.0001C8.99874 11.2656 9.10423 11.5203 9.292 11.7081C9.47977 11.8959 9.73445 12.0013 10 12.0013C10.2656 12.0013 10.5202 11.8959 10.708 11.7081L15 7.41408V19.0001C15 19.2653 15.1054 19.5196 15.2929 19.7072C15.4804 19.8947 15.7348 20.0001 16 20.0001ZM2 25.0001C2 24.7349 2.10536 24.4805 2.29289 24.293C2.48043 24.1054 2.73478 24.0001 3 24.0001H29C29.2652 24.0001 29.5196 24.1054 29.7071 24.293C29.8946 24.4805 30 24.7349 30 25.0001C30 25.2653 29.8946 25.5196 29.7071 25.7072C29.5196 25.8947 29.2652 26.0001 29 26.0001H3C2.73478 26.0001 2.48043 25.8947 2.29289 25.7072C2.10536 25.5196 2 25.2653 2 25.0001V25.0001Z" fill="white"/>
</svg>
