<svg width="35" height="33" viewBox="0 0 35 33" fill="none" xmlns="http://www.w3.org/2000/svg">
<g clip-path="url(#clip0_23_578)">
<path fill-rule="evenodd" clip-rule="evenodd" d="M2.836 16.5C2.836 20.213 4.40318 23.774 7.19278 26.3995C9.98239 29.025 13.7659 30.5 17.711 30.5C21.6561 30.5 25.4396 29.025 28.2292 26.3995C31.0188 23.774 32.586 20.213 32.586 16.5C32.586 12.787 31.0188 9.22601 28.2292 6.6005C25.4396 3.975 21.6561 2.5 17.711 2.5C13.7659 2.5 9.98239 3.975 7.19278 6.6005C4.40318 9.22601 2.836 12.787 2.836 16.5ZM34.711 16.5C34.711 20.7435 32.9199 24.8131 29.7318 27.8137C26.5437 30.8143 22.2197 32.5 17.711 32.5C13.2023 32.5 8.8783 30.8143 5.69018 27.8137C2.50207 24.8131 0.710999 20.7435 0.710999 16.5C0.710999 12.2565 2.50207 8.18687 5.69018 5.18629C8.8783 2.18571 13.2023 0.5 17.711 0.5C22.2197 0.5 26.5437 2.18571 29.7318 5.18629C32.9199 8.18687 34.711 12.2565 34.711 16.5ZM13.1507 22.106C12.9515 22.2938 12.6812 22.3994 12.3992 22.3996C12.1173 22.3997 11.8468 22.2945 11.6473 22.107C11.4478 21.9195 11.3356 21.6651 11.3354 21.3997C11.3352 21.1343 11.447 20.8798 11.6462 20.692L20.3524 12.5H14.4704C14.1886 12.5 13.9183 12.3946 13.7191 12.2071C13.5198 12.0196 13.4079 11.7652 13.4079 11.5C13.4079 11.2348 13.5198 10.9804 13.7191 10.7929C13.9183 10.6054 14.1886 10.5 14.4704 10.5H22.9172C23.199 10.5 23.4693 10.6054 23.6686 10.7929C23.8678 10.9804 23.9797 11.2348 23.9797 11.5V19.45C23.9797 19.7152 23.8678 19.9696 23.6686 20.1571C23.4693 20.3446 23.199 20.45 22.9172 20.45C22.6355 20.45 22.3652 20.3446 22.1659 20.1571C21.9667 19.9696 21.8547 19.7152 21.8547 19.45V13.914L13.1507 22.106Z" fill="black"/>
</g>
<defs>
<clipPath id="clip0_23_578">
<rect width="34" height="32" fill="white" transform="translate(0.710999 0.5)"/>
</clipPath>
</defs>
</svg>
