<svg width="32" height="32" viewBox="0 0 32 32" fill="none" xmlns="http://www.w3.org/2000/svg">
<path d="M22.6667 10.6667V9.33334C22.6667 5.65734 19.676 2.66667 16 2.66667C12.324 2.66667 9.33337 5.65734 9.33337 9.33334V13.3333H8.00004C6.52937 13.3333 5.33337 14.5293 5.33337 16V26.6667C5.33337 28.1373 6.52937 29.3333 8.00004 29.3333H24C25.4707 29.3333 26.6667 28.1373 26.6667 26.6667V16C26.6667 14.5293 25.4707 13.3333 24 13.3333H12V9.33334C12 7.12801 13.7947 5.33334 16 5.33334C18.2054 5.33334 20 7.12801 20 9.33334V10.6667H22.6667Z" fill="#7E7E7E"/>
</svg>
