<svg width="35" height="33" viewBox="0 0 35 33" fill="none" xmlns="http://www.w3.org/2000/svg">
<path d="M27.7268 7.07332C25.4024 4.87132 22.3345 3.50161 19.0521 3.20031C15.7696 2.89902 12.4783 3.68503 9.74564 5.42283C7.01294 7.16064 5.01008 9.74133 4.08235 12.72C3.15461 15.6987 3.36015 18.8887 4.66351 21.74C4.79936 22.005 4.84393 22.3033 4.79101 22.5933L3.54435 28.2333C3.49632 28.4496 3.50612 28.6736 3.57289 28.8854C3.63965 29.0972 3.76128 29.2901 3.92685 29.4467C4.06257 29.5735 4.22417 29.6731 4.4019 29.7396C4.57964 29.806 4.76983 29.8379 4.96101 29.8333H5.24435L11.3077 28.6867C11.6158 28.6518 11.9283 28.6931 12.2143 28.8067C15.2439 30.0334 18.6332 30.2268 21.7981 29.3536C24.9629 28.4805 27.7049 26.5954 29.5513 24.0235C31.3977 21.4515 32.2329 18.3539 31.9128 15.2645C31.5926 12.1751 30.1373 9.2877 27.7977 7.09999L27.7268 7.07332ZM12.0443 17.8333C11.7642 17.8333 11.4903 17.7551 11.2573 17.6086C11.0243 17.4621 10.8427 17.2539 10.7355 17.0102C10.6283 16.7666 10.6002 16.4985 10.6549 16.2399C10.7096 15.9812 10.8445 15.7437 11.0426 15.5572C11.2407 15.3707 11.4932 15.2437 11.768 15.1923C12.0428 15.1408 12.3276 15.1672 12.5865 15.2682C12.8453 15.3691 13.0666 15.54 13.2223 15.7592C13.3779 15.9785 13.461 16.2363 13.461 16.5C13.461 16.8536 13.3118 17.1928 13.0461 17.4428C12.7804 17.6928 12.4201 17.8333 12.0443 17.8333ZM17.711 17.8333C17.4308 17.8333 17.1569 17.7551 16.924 17.6086C16.691 17.4621 16.5094 17.2539 16.4022 17.0102C16.295 16.7666 16.2669 16.4985 16.3216 16.2399C16.3762 15.9812 16.5112 15.7437 16.7093 15.5572C16.9074 15.3707 17.1598 15.2437 17.4346 15.1923C17.7094 15.1408 17.9943 15.1672 18.2531 15.2682C18.512 15.3691 18.7333 15.54 18.8889 15.7592C19.0446 15.9785 19.1277 16.2363 19.1277 16.5C19.1277 16.8536 18.9784 17.1928 18.7127 17.4428C18.4471 17.6928 18.0867 17.8333 17.711 17.8333ZM23.3777 17.8333C23.0975 17.8333 22.8236 17.7551 22.5906 17.6086C22.3577 17.4621 22.1761 17.2539 22.0688 17.0102C21.9616 16.7666 21.9336 16.4985 21.9882 16.2399C22.0429 15.9812 22.1778 15.7437 22.3759 15.5572C22.5741 15.3707 22.8265 15.2437 23.1013 15.1923C23.3761 15.1408 23.661 15.1672 23.9198 15.2682C24.1787 15.3691 24.3999 15.54 24.5556 15.7592C24.7113 15.9785 24.7943 16.2363 24.7943 16.5C24.7943 16.8536 24.6451 17.1928 24.3794 17.4428C24.1137 17.6928 23.7534 17.8333 23.3777 17.8333Z" fill="black"/>
</svg>
