<svg width="72" height="53" viewBox="0 0 72 53" fill="none" xmlns="http://www.w3.org/2000/svg">
<path d="M57 24.2916H21.42L32.31 14.6633C32.8192 14.2123 33.0642 13.6309 32.9911 13.047C32.9179 12.463 32.5327 11.9244 31.92 11.5496C31.3074 11.1747 30.5175 10.9944 29.7242 11.0482C28.931 11.1021 28.1992 11.3857 27.69 11.8366L12.69 25.0866C12.5891 25.192 12.4988 25.3028 12.42 25.4179C12.42 25.5283 12.42 25.5946 12.21 25.705C12.074 25.9582 12.0028 26.2277 12 26.5C12.0028 26.7722 12.074 27.0418 12.21 27.295C12.21 27.4054 12.21 27.4716 12.42 27.5821C12.4988 27.6972 12.5891 27.8079 12.69 27.9133L27.69 41.1633C27.9721 41.4126 28.3253 41.6131 28.7245 41.7505C29.1238 41.8879 29.5593 41.9588 30 41.9583C30.701 41.9593 31.3803 41.7796 31.92 41.4504C32.2238 41.265 32.4749 41.0373 32.6589 40.7804C32.843 40.5235 32.9564 40.2423 32.9926 39.9531C33.0288 39.6638 32.9872 39.3722 32.8701 39.0948C32.7529 38.8174 32.5626 38.5598 32.31 38.3366L21.42 28.7083H57C57.7957 28.7083 58.5587 28.4756 59.1213 28.0615C59.6839 27.6474 60 27.0857 60 26.5C60 25.9143 59.6839 25.3526 59.1213 24.9385C58.5587 24.5243 57.7957 24.2916 57 24.2916Z" fill="black"/>
</svg>
