<svg width="40" height="33" viewBox="0 0 69 33" fill="none" xmlns="http://www.w3.org/2000/svg">
<path d="M32.7891 16.2812L19.9173 3.41874C19.8246 3.32587 19.7145 3.2522 19.5933 3.20193C19.4721 3.15167 19.3422 3.12579 19.211 3.12579C19.0798 3.12579 18.9499 3.15167 18.8287 3.20193C18.7075 3.2522 18.5974 3.32587 18.5048 3.41874L5.63288 16.2812C5.25788 16.6562 5.04538 17.1656 5.04538 17.6969C5.04538 18.8 5.94225 19.6969 7.04538 19.6969H8.40163V28.875C8.40163 29.4281 8.84851 29.875 9.40163 29.875H17.211V22.875H20.711V29.875H29.0204C29.5735 29.875 30.0204 29.4281 30.0204 28.875V19.6969H31.3766C31.9079 19.6969 32.4173 19.4875 32.7923 19.1094C33.5704 18.3281 33.5704 17.0625 32.7891 16.2812Z" fill="black"/>
<path d="M64.0235 12.5H62.8516C62.772 12.5 62.697 12.5391 62.6501 12.6031L58.211 18.7219L53.772 12.6031C53.7251 12.5391 53.6501 12.5 53.5704 12.5H52.3985C52.297 12.5 52.2376 12.6156 52.297 12.6984L57.8063 20.2937C58.0063 20.5687 58.4157 20.5687 58.6141 20.2937L64.1235 12.6984C64.1845 12.6156 64.1251 12.5 64.0235 12.5Z" fill="black"/>
</svg>
