<svg width="50" height="33" viewBox="0 0 69 33" fill="none" xmlns="http://www.w3.org/2000/svg">
<path d="M32.789 16.2812L19.9172 3.41874C19.8245 3.32587 19.7144 3.2522 19.5932 3.20193C19.472 3.15167 19.3421 3.12579 19.2109 3.12579C19.0797 3.12579 18.9498 3.15167 18.8286 3.20193C18.7074 3.2522 18.5973 3.32587 18.5047 3.41874L5.63279 16.2812C5.25779 16.6562 5.04529 17.1656 5.04529 17.6969C5.04529 18.8 5.94216 19.6969 7.04529 19.6969H8.40154V28.875C8.40154 29.4281 8.84841 29.875 9.40154 29.875H17.2109V22.875H20.7109V29.875H29.0203C29.5734 29.875 30.0203 29.4281 30.0203 28.875V19.6969H31.3765C31.9078 19.6969 32.4172 19.4875 32.7922 19.1094C33.5703 18.3281 33.5703 17.0625 32.789 16.2812Z" fill="black"/>
<path d="M64.0235 12.5H62.8516C62.7719 12.5 62.6969 12.5391 62.65 12.6031L58.211 18.7219L53.7719 12.6031C53.725 12.5391 53.65 12.5 53.5703 12.5H52.3985C52.2969 12.5 52.2375 12.6156 52.2969 12.6984L57.8063 20.2937C58.0063 20.5687 58.4156 20.5687 58.6141 20.2937L64.1235 12.6984C64.1844 12.6156 64.125 12.5 64.0235 12.5Z" fill="black"/>
</svg>
