<svg width="33" height="33" viewBox="0 0 33 33" fill="none" xmlns="http://www.w3.org/2000/svg">
<g clip-path="url(#clip0_20_93)">
<path d="M16.5 32.5C20.7435 32.5 24.8131 30.8143 27.8137 27.8137C30.8143 24.8131 32.5 20.7435 32.5 16.5C32.5 12.2565 30.8143 8.18687 27.8137 5.18629C24.8131 2.18571 20.7435 0.5 16.5 0.5C12.2565 0.5 8.18687 2.18571 5.18629 5.18629C2.18571 8.18687 0.5 12.2565 0.5 16.5C0.5 20.7435 2.18571 24.8131 5.18629 27.8137C8.18687 30.8143 12.2565 32.5 16.5 32.5ZM16.5 3.5C19.9478 3.5 23.2544 4.86964 25.6924 7.30761C28.1304 9.74558 29.5 13.0522 29.5 16.5C29.5 19.9478 28.1304 23.2544 25.6924 25.6924C23.2544 28.1304 19.9478 29.5 16.5 29.5C13.0522 29.5 9.74558 28.1304 7.30761 25.6924C4.86964 23.2544 3.5 19.9478 3.5 16.5C3.5 13.0522 4.86964 9.74558 7.30761 7.30761C9.74558 4.86964 13.0522 3.5 16.5 3.5ZM25.5 8.5C26.05 8.5 26.5 8.95 26.5 9.5V12.5C26.5 13.6 25.6 14.5 24.5 14.5H20.5C19.4 14.5 18.5 13.6 18.5 12.5H14.5C14.5 13.6 13.6 14.5 12.5 14.5H8.5C7.4 14.5 6.5 13.6 6.5 12.5V9.5C6.5 8.95 6.95 8.5 7.5 8.5H13.5C14.05 8.5 14.5 8.95 14.5 9.5V10.5H18.5V9.5C18.5 8.95 18.95 8.5 19.5 8.5H25.5ZM16.5 24.5C17.8816 24.5008 19.2399 24.1434 20.4422 23.4627C21.6445 22.7819 22.6498 21.8011 23.36 20.616L25.074 21.646C23.8024 23.7693 21.788 25.345 19.4211 26.0681C17.0541 26.7912 14.5031 26.6101 12.262 25.56L13.298 23.832C14.278 24.26 15.36 24.5 16.498 24.5H16.5Z" fill="#605F5F"/>
</g>
<defs>
<clipPath id="clip0_20_93">
<rect width="32" height="32" fill="white" transform="translate(0.5 0.5)"/>
</clipPath>
</defs>
</svg>
