<svg width="32" height="32" viewBox="0 0 32 32" fill="#fff" xmlns="http://www.w3.org/2000/svg">
<g clip-path="url(#clip0_238_51)">
<path d="M31.928 1.37198C32.0008 1.19025 32.0186 0.99117 31.9792 0.799417C31.9399 0.607665 31.8452 0.431673 31.7068 0.29326C31.5683 0.154847 31.3923 0.0600998 31.2006 0.0207649C31.0088 -0.01857 30.8098 -0.000762977 30.628 0.0719784L1.53403 11.71H1.53203L0.628035 12.07C0.456815 12.1383 0.307806 12.2526 0.197466 12.4002C0.0871263 12.5479 0.0197507 12.7232 0.00278159 12.9068C-0.0141875 13.0903 0.0199104 13.275 0.101309 13.4404C0.182707 13.6058 0.308238 13.7454 0.464035 13.844L1.28403 14.364L1.28603 14.368L11.276 20.724L17.632 30.714L17.636 30.718L18.156 31.538C18.2549 31.6932 18.3946 31.8181 18.5599 31.899C18.7252 31.9799 18.9096 32.0136 19.0928 31.9964C19.276 31.9793 19.4509 31.9119 19.5982 31.8017C19.7456 31.6915 19.8597 31.5428 19.928 31.372L31.928 1.37198V1.37198ZM28.262 5.15198L13.274 20.14L12.844 19.464C12.7652 19.3399 12.6601 19.2348 12.536 19.156L11.86 18.726L26.848 3.73798L29.204 2.79598L28.264 5.15198H28.262Z" fill="#fff"/>
</g>
<defs>
<clipPath id="clip0_238_51">
<rect width="32" height="32" fill="white"/>
</clipPath>
</defs>
</svg>
