<svg width="33" height="32" viewBox="0 0 33 32" fill="none" xmlns="http://www.w3.org/2000/svg">
<path d="M27.4255 23.9226C26.836 22.5263 25.9805 21.2579 24.9067 20.1882C23.8362 19.1155 22.5681 18.2601 21.1724 17.6695C21.1599 17.6632 21.1474 17.6601 21.1349 17.6539C23.0817 16.2476 24.3474 13.957 24.3474 11.3726C24.3474 7.09137 20.8786 3.62262 16.5974 3.62262C12.3161 3.62262 8.84737 7.09137 8.84737 11.3726C8.84737 13.957 10.113 16.2476 12.0599 17.657C12.0474 17.6632 12.0349 17.6664 12.0224 17.6726C10.6224 18.2632 9.36612 19.1101 8.28799 20.1914C7.21521 21.2619 6.35988 22.53 5.76924 23.9257C5.189 25.2922 4.87606 26.7571 4.84737 28.2414C4.84653 28.2747 4.85238 28.3079 4.86457 28.339C4.87676 28.37 4.89505 28.3983 4.91834 28.4222C4.94164 28.4461 4.96949 28.4651 5.00023 28.478C5.03098 28.491 5.06401 28.4976 5.09737 28.4976H6.97237C7.10987 28.4976 7.21924 28.3882 7.22237 28.2539C7.28487 25.8414 8.25362 23.582 9.96612 21.8695C11.738 20.0976 14.0911 19.1226 16.5974 19.1226C19.1036 19.1226 21.4567 20.0976 23.2286 21.8695C24.9411 23.582 25.9099 25.8414 25.9724 28.2539C25.9755 28.3914 26.0849 28.4976 26.2224 28.4976H28.0974C28.1307 28.4976 28.1638 28.491 28.1945 28.478C28.2253 28.4651 28.2531 28.4461 28.2764 28.4222C28.2997 28.3983 28.318 28.37 28.3302 28.339C28.3424 28.3079 28.3482 28.2747 28.3474 28.2414C28.3161 26.7476 28.0067 25.2945 27.4255 23.9226V23.9226ZM16.5974 16.7476C15.163 16.7476 13.813 16.1882 12.7974 15.1726C11.7817 14.157 11.2224 12.807 11.2224 11.3726C11.2224 9.93825 11.7817 8.58825 12.7974 7.57262C13.813 6.55699 15.163 5.99762 16.5974 5.99762C18.0317 5.99762 19.3817 6.55699 20.3974 7.57262C21.413 8.58825 21.9724 9.93825 21.9724 11.3726C21.9724 12.807 21.413 14.157 20.3974 15.1726C19.3817 16.1882 18.0317 16.7476 16.5974 16.7476Z" fill="black"/>
</svg>
